<mxfile host="app.diagrams.net" modified="2021-10-20T20:16:37.947Z" agent="5.0 (Macintosh)" etag="zpeKYVXYCOw_fFuAUYt2" version="15.5.1" type="github">
  <diagram id="c2susIsjc_IdsU9exu3S" name="Page-1">
    <mxGraphModel dx="2828" dy="-180" grid="1" gridSize="10" guides="1" tooltips="1" connect="1" arrows="1" fold="1" page="1" pageScale="1" pageWidth="850" pageHeight="1100" math="0" shadow="0">
      <root>
        <mxCell id="0" />
        <mxCell id="1" parent="0" />
        <mxCell id="xkc74XCjLa4Et9LF49ZE-1" value="&lt;font style=&quot;font-size: 64px&quot;&gt;MVP-Architektur:&lt;/font&gt;" style="text;html=1;align=center;verticalAlign=middle;resizable=0;points=[];autosize=1;strokeColor=none;fillColor=none;" vertex="1" parent="1">
          <mxGeometry x="-600" y="1168" width="500" height="30" as="geometry" />
        </mxCell>
        <mxCell id="xkc74XCjLa4Et9LF49ZE-2" value="Budget_apr" style="swimlane;fontStyle=1;align=center;verticalAlign=top;childLayout=stackLayout;horizontal=1;startSize=26;horizontalStack=0;resizeParent=1;resizeParentMax=0;resizeLast=0;collapsible=1;marginBottom=0;" vertex="1" collapsed="1" parent="1">
          <mxGeometry x="-800" y="1298" width="100" height="26" as="geometry">
            <mxRectangle x="-800" y="1298" width="160" height="184" as="alternateBounds" />
          </mxGeometry>
        </mxCell>
        <mxCell id="xkc74XCjLa4Et9LF49ZE-3" value="- id_budget_apr: Long&#xa;- employee: int&#xa;- req_date: LocalDate&#xa;- apr_date: LocalDate&#xa;- end_date: LocalDate&#xa;- amount: int&#xa;- reason: String&#xa;- usage: double&#xa;" style="text;strokeColor=none;fillColor=none;align=left;verticalAlign=top;spacingLeft=4;spacingRight=4;overflow=hidden;rotatable=0;points=[[0,0.5],[1,0.5]];portConstraint=eastwest;" vertex="1" parent="xkc74XCjLa4Et9LF49ZE-2">
          <mxGeometry y="26" width="100" height="124" as="geometry" />
        </mxCell>
        <mxCell id="xkc74XCjLa4Et9LF49ZE-4" value="" style="line;strokeWidth=1;fillColor=none;align=left;verticalAlign=middle;spacingTop=-1;spacingLeft=3;spacingRight=3;rotatable=0;labelPosition=right;points=[];portConstraint=eastwest;" vertex="1" parent="xkc74XCjLa4Et9LF49ZE-2">
          <mxGeometry y="150" width="100" height="8" as="geometry" />
        </mxCell>
        <mxCell id="xkc74XCjLa4Et9LF49ZE-5" value="+ getMethods()" style="text;strokeColor=none;fillColor=none;align=left;verticalAlign=top;spacingLeft=4;spacingRight=4;overflow=hidden;rotatable=0;points=[[0,0.5],[1,0.5]];portConstraint=eastwest;" vertex="1" parent="xkc74XCjLa4Et9LF49ZE-2">
          <mxGeometry y="158" width="100" height="26" as="geometry" />
        </mxCell>
        <mxCell id="xkc74XCjLa4Et9LF49ZE-6" value="BudgetService" style="swimlane;fontStyle=1;align=center;verticalAlign=top;childLayout=stackLayout;horizontal=1;startSize=26;horizontalStack=0;resizeParent=1;resizeParentMax=0;resizeLast=0;collapsible=1;marginBottom=0;" vertex="1" collapsed="1" parent="1">
          <mxGeometry x="-30" y="1690" width="120" height="26" as="geometry">
            <mxRectangle x="-122" y="1298" width="490" height="700" as="alternateBounds" />
          </mxGeometry>
        </mxCell>
        <mxCell id="xkc74XCjLa4Et9LF49ZE-7" value="- budget_reqRepository: Budget_reqRepository&#xa;- budget_aprRepository: Budget_aprRepository&#xa;- employeeRepository: EmployeeRepository&#xa;- expenseRepository: ExpenseRepository&#xa;" style="text;strokeColor=none;fillColor=none;align=left;verticalAlign=top;spacingLeft=4;spacingRight=4;overflow=hidden;rotatable=0;points=[[0,0.5],[1,0.5]];portConstraint=eastwest;" vertex="1" parent="xkc74XCjLa4Et9LF49ZE-6">
          <mxGeometry y="26" width="120" height="74" as="geometry" />
        </mxCell>
        <mxCell id="xkc74XCjLa4Et9LF49ZE-8" value="" style="line;strokeWidth=1;fillColor=none;align=left;verticalAlign=middle;spacingTop=-1;spacingLeft=3;spacingRight=3;rotatable=0;labelPosition=right;points=[];portConstraint=eastwest;" vertex="1" parent="xkc74XCjLa4Et9LF49ZE-6">
          <mxGeometry y="100" width="120" height="8" as="geometry" />
        </mxCell>
        <mxCell id="xkc74XCjLa4Et9LF49ZE-9" value="+ BudgetService (budget_reqRepository: Budget_reqRepository&#xa;        budget_aprRepository: Budget_aprRepository&#xa;        employeeRepository: EmployeeRepository&#xa;        expenseRepository: ExpenseRepository)&#xa;&#xa;+ approveBudget (id: int): Budget_apr&#xa;+ denyBudget(id: int): void&#xa;&#xa;+ requestBudget (temp_end_date: LocalDate, temp_employee: int&#xa;        temp_amount: int, temp_reason: String): BudgetReq&#xa;&#xa;+ reportExpense (temp_budget: int, temp_expense_amount: int, &#xa;        tem_reason: String): Expense&#xa;+ checkUsage (budgetIdToCheck: int): double&#xa;+ checkOverflowAddingExpense (budgetIdToCheck: int,&#xa;         expenseAmountToBeAdded: int): void&#xa;+ editExpense (edit_expense: int, temp_budget: int, temp_expense_amount: int,&#xa;        temp_reason: String): Expense&#xa;&#xa;+ findBudgetsByEmployee (employee_id: int): Listy&lt;Budget_apr&gt;&#xa;+ findBudgetByID (budget_id: int): Budget_apr&#xa;&#xa;+ findActiveBudgets (select_date: LocalDate): List&lt;Budget_apr&gt; [!STICHTAG]&#xa;+ findActiveBudgets_Asc (select_date: LocalDate): List&lt;Budget_apr&gt;&#xa;+ findActiveBudgets_Desc (select_date: LocalDate): List&lt;Budget_apr&gt;&#xa;+ findActiveBudgets_OrderedByUsage_Asc &#xa;        (select_date: LocalDate): List&lt;Budget_apr&gt;&#xa;+ findActiveBudgets_OrderedByUsage_Desc&#xa;        (select_date: LocalDate): List&lt;Budget_apr&gt;&#xa;&#xa;+ findRequestsByEmployee (employee: int): List&lt;Budget_req&gt;&#xa;+ findRequestByRequestID (request_id: int): Budget_req&#xa;&#xa;+ findEmployeeByEmployeeID (id_employee: int): Employee&#xa;&#xa;+ findExpensesByBudgetID (budget: int): List&lt;Expense&gt;&#xa;+ findExpenseByExpenseID (expense_id: int): Expense&#xa;+ findExpensesUntilDateByID (select_date: LocalDate, budget: int): List&lt;Expense&gt;&#xa;+ findExpensesUntilDateByID_Asc (select_date: LocalDate, budget: int): List&lt;Expense&gt;&#xa;+ findExpensesUntilDateByID_Desc (select_date: LocalDate, budget: int): List&lt;Expense&gt;&#xa;&#xa;&#xa;&#xa;&#xa;&#xa;" style="text;strokeColor=none;fillColor=none;align=left;verticalAlign=top;spacingLeft=4;spacingRight=4;overflow=hidden;rotatable=0;points=[[0,0.5],[1,0.5]];portConstraint=eastwest;" vertex="1" parent="xkc74XCjLa4Et9LF49ZE-6">
          <mxGeometry y="108" width="120" height="592" as="geometry" />
        </mxCell>
        <mxCell id="xkc74XCjLa4Et9LF49ZE-10" value="UserPresenter" style="swimlane;fontStyle=1;align=center;verticalAlign=top;childLayout=stackLayout;horizontal=1;startSize=26;horizontalStack=0;resizeParent=1;resizeParentMax=0;resizeLast=0;collapsible=1;marginBottom=0;" vertex="1" collapsed="1" parent="1">
          <mxGeometry x="135" y="1530" width="110" height="26" as="geometry">
            <mxRectangle x="480" y="1298" width="320" height="330" as="alternateBounds" />
          </mxGeometry>
        </mxCell>
        <mxCell id="xkc74XCjLa4Et9LF49ZE-11" value="- userView: UserViewImpl&#xa;- BudgetService: budgetService&#xa;" style="text;strokeColor=none;fillColor=none;align=left;verticalAlign=top;spacingLeft=4;spacingRight=4;overflow=hidden;rotatable=0;points=[[0,0.5],[1,0.5]];portConstraint=eastwest;" vertex="1" parent="xkc74XCjLa4Et9LF49ZE-10">
          <mxGeometry y="26" width="110" height="54" as="geometry" />
        </mxCell>
        <mxCell id="xkc74XCjLa4Et9LF49ZE-12" value="" style="line;strokeWidth=1;fillColor=none;align=left;verticalAlign=middle;spacingTop=-1;spacingLeft=3;spacingRight=3;rotatable=0;labelPosition=right;points=[];portConstraint=eastwest;" vertex="1" parent="xkc74XCjLa4Et9LF49ZE-10">
          <mxGeometry y="80" width="110" height="8" as="geometry" />
        </mxCell>
        <mxCell id="xkc74XCjLa4Et9LF49ZE-13" value="+ Presenter (budgetService: Budgetservice,&#xa;        UserViewImpl userView)&#xa;&#xa;+ findBudgetsByEmployee&#xa;+ findBudgetByID&#xa;&#xa;+ findExpenseByBudgetID&#xa;+ findExpenseByExpenseID&#xa;&#xa;+ reportExpense&#xa;+ checkUsage&#xa;+ checkOverflowAddingExpense&#xa;+ editExpense&#xa;&#xa;+ requestBudget" style="text;strokeColor=none;fillColor=none;align=left;verticalAlign=top;spacingLeft=4;spacingRight=4;overflow=hidden;rotatable=0;points=[[0,0.5],[1,0.5]];portConstraint=eastwest;" vertex="1" parent="xkc74XCjLa4Et9LF49ZE-10">
          <mxGeometry y="88" width="110" height="242" as="geometry" />
        </mxCell>
        <mxCell id="xkc74XCjLa4Et9LF49ZE-14" value="UserViewImpl" style="swimlane;fontStyle=1;align=center;verticalAlign=top;childLayout=stackLayout;horizontal=1;startSize=26;horizontalStack=0;resizeParent=1;resizeParentMax=0;resizeLast=0;collapsible=1;marginBottom=0;" vertex="1" collapsed="1" parent="1">
          <mxGeometry x="585" y="1542" width="110" height="26" as="geometry">
            <mxRectangle x="1120" y="1398" width="160" height="86" as="alternateBounds" />
          </mxGeometry>
        </mxCell>
        <mxCell id="xkc74XCjLa4Et9LF49ZE-15" value="+ field: type" style="text;strokeColor=none;fillColor=none;align=left;verticalAlign=top;spacingLeft=4;spacingRight=4;overflow=hidden;rotatable=0;points=[[0,0.5],[1,0.5]];portConstraint=eastwest;" vertex="1" parent="xkc74XCjLa4Et9LF49ZE-14">
          <mxGeometry y="26" width="110" height="26" as="geometry" />
        </mxCell>
        <mxCell id="xkc74XCjLa4Et9LF49ZE-16" value="" style="line;strokeWidth=1;fillColor=none;align=left;verticalAlign=middle;spacingTop=-1;spacingLeft=3;spacingRight=3;rotatable=0;labelPosition=right;points=[];portConstraint=eastwest;" vertex="1" parent="xkc74XCjLa4Et9LF49ZE-14">
          <mxGeometry y="52" width="110" height="8" as="geometry" />
        </mxCell>
        <mxCell id="xkc74XCjLa4Et9LF49ZE-17" value="+ method(type): type" style="text;strokeColor=none;fillColor=none;align=left;verticalAlign=top;spacingLeft=4;spacingRight=4;overflow=hidden;rotatable=0;points=[[0,0.5],[1,0.5]];portConstraint=eastwest;" vertex="1" parent="xkc74XCjLa4Et9LF49ZE-14">
          <mxGeometry y="60" width="110" height="26" as="geometry" />
        </mxCell>
        <mxCell id="xkc74XCjLa4Et9LF49ZE-18" value="Budget_req" style="swimlane;fontStyle=1;align=center;verticalAlign=top;childLayout=stackLayout;horizontal=1;startSize=26;horizontalStack=0;resizeParent=1;resizeParentMax=0;resizeLast=0;collapsible=1;marginBottom=0;" vertex="1" collapsed="1" parent="1">
          <mxGeometry x="-800" y="1538" width="100" height="26" as="geometry">
            <mxRectangle x="-800" y="1538" width="160" height="164" as="alternateBounds" />
          </mxGeometry>
        </mxCell>
        <mxCell id="xkc74XCjLa4Et9LF49ZE-19" value="- id_budget_req: Long&#xa;- employee: int&#xa;- req_date: LocalDate&#xa;- end_date: LocalDate&#xa;- amount: int&#xa;- reason: String&#xa;&#xa;&#xa;" style="text;strokeColor=none;fillColor=none;align=left;verticalAlign=top;spacingLeft=4;spacingRight=4;overflow=hidden;rotatable=0;points=[[0,0.5],[1,0.5]];portConstraint=eastwest;" vertex="1" parent="xkc74XCjLa4Et9LF49ZE-18">
          <mxGeometry y="26" width="100" height="104" as="geometry" />
        </mxCell>
        <mxCell id="xkc74XCjLa4Et9LF49ZE-20" value="" style="line;strokeWidth=1;fillColor=none;align=left;verticalAlign=middle;spacingTop=-1;spacingLeft=3;spacingRight=3;rotatable=0;labelPosition=right;points=[];portConstraint=eastwest;" vertex="1" parent="xkc74XCjLa4Et9LF49ZE-18">
          <mxGeometry y="130" width="100" height="8" as="geometry" />
        </mxCell>
        <mxCell id="xkc74XCjLa4Et9LF49ZE-21" value="+ getMethods()" style="text;strokeColor=none;fillColor=none;align=left;verticalAlign=top;spacingLeft=4;spacingRight=4;overflow=hidden;rotatable=0;points=[[0,0.5],[1,0.5]];portConstraint=eastwest;" vertex="1" parent="xkc74XCjLa4Et9LF49ZE-18">
          <mxGeometry y="138" width="100" height="26" as="geometry" />
        </mxCell>
        <mxCell id="xkc74XCjLa4Et9LF49ZE-22" value="Employee" style="swimlane;fontStyle=1;align=center;verticalAlign=top;childLayout=stackLayout;horizontal=1;startSize=26;horizontalStack=0;resizeParent=1;resizeParentMax=0;resizeLast=0;collapsible=1;marginBottom=0;" vertex="1" collapsed="1" parent="1">
          <mxGeometry x="-800" y="1778" width="90" height="26" as="geometry">
            <mxRectangle x="-800" y="1778" width="160" height="124" as="alternateBounds" />
          </mxGeometry>
        </mxCell>
        <mxCell id="xkc74XCjLa4Et9LF49ZE-23" value="- id_employee: Long&#xa;- name: String&#xa;- surname: String&#xa;- password: String&#xa;" style="text;strokeColor=none;fillColor=none;align=left;verticalAlign=top;spacingLeft=4;spacingRight=4;overflow=hidden;rotatable=0;points=[[0,0.5],[1,0.5]];portConstraint=eastwest;" vertex="1" parent="xkc74XCjLa4Et9LF49ZE-22">
          <mxGeometry y="26" width="90" height="64" as="geometry" />
        </mxCell>
        <mxCell id="xkc74XCjLa4Et9LF49ZE-24" value="" style="line;strokeWidth=1;fillColor=none;align=left;verticalAlign=middle;spacingTop=-1;spacingLeft=3;spacingRight=3;rotatable=0;labelPosition=right;points=[];portConstraint=eastwest;" vertex="1" parent="xkc74XCjLa4Et9LF49ZE-22">
          <mxGeometry y="90" width="90" height="8" as="geometry" />
        </mxCell>
        <mxCell id="xkc74XCjLa4Et9LF49ZE-25" value="+ getMethods()" style="text;strokeColor=none;fillColor=none;align=left;verticalAlign=top;spacingLeft=4;spacingRight=4;overflow=hidden;rotatable=0;points=[[0,0.5],[1,0.5]];portConstraint=eastwest;" vertex="1" parent="xkc74XCjLa4Et9LF49ZE-22">
          <mxGeometry y="98" width="90" height="26" as="geometry" />
        </mxCell>
        <mxCell id="xkc74XCjLa4Et9LF49ZE-26" value="Expense" style="swimlane;fontStyle=1;align=center;verticalAlign=top;childLayout=stackLayout;horizontal=1;startSize=26;horizontalStack=0;resizeParent=1;resizeParentMax=0;resizeLast=0;collapsible=1;marginBottom=0;" vertex="1" collapsed="1" parent="1">
          <mxGeometry x="-800" y="1978" width="80" height="26" as="geometry">
            <mxRectangle x="-800" y="1978" width="160" height="154" as="alternateBounds" />
          </mxGeometry>
        </mxCell>
        <mxCell id="xkc74XCjLa4Et9LF49ZE-27" value="- id_expense: Long&#xa;- budget: int&#xa;- expense_date: LocalDate&#xa;- expense_amount: int&#xa;- reason: String&#xa;" style="text;strokeColor=none;fillColor=none;align=left;verticalAlign=top;spacingLeft=4;spacingRight=4;overflow=hidden;rotatable=0;points=[[0,0.5],[1,0.5]];portConstraint=eastwest;" vertex="1" parent="xkc74XCjLa4Et9LF49ZE-26">
          <mxGeometry y="26" width="80" height="94" as="geometry" />
        </mxCell>
        <mxCell id="xkc74XCjLa4Et9LF49ZE-28" value="" style="line;strokeWidth=1;fillColor=none;align=left;verticalAlign=middle;spacingTop=-1;spacingLeft=3;spacingRight=3;rotatable=0;labelPosition=right;points=[];portConstraint=eastwest;" vertex="1" parent="xkc74XCjLa4Et9LF49ZE-26">
          <mxGeometry y="120" width="80" height="8" as="geometry" />
        </mxCell>
        <mxCell id="xkc74XCjLa4Et9LF49ZE-29" value="+ getMethods()" style="text;strokeColor=none;fillColor=none;align=left;verticalAlign=top;spacingLeft=4;spacingRight=4;overflow=hidden;rotatable=0;points=[[0,0.5],[1,0.5]];portConstraint=eastwest;" vertex="1" parent="xkc74XCjLa4Et9LF49ZE-26">
          <mxGeometry y="128" width="80" height="26" as="geometry" />
        </mxCell>
        <mxCell id="xkc74XCjLa4Et9LF49ZE-30" value="extends" style="edgeStyle=orthogonalEdgeStyle;rounded=0;orthogonalLoop=1;jettySize=auto;html=1;entryX=1;entryY=0.5;entryDx=0;entryDy=0;fontSize=12;endArrow=block;endFill=0;" edge="1" parent="1" source="xkc74XCjLa4Et9LF49ZE-32" target="xkc74XCjLa4Et9LF49ZE-43">
          <mxGeometry relative="1" as="geometry" />
        </mxCell>
        <mxCell id="xkc74XCjLa4Et9LF49ZE-31" style="edgeStyle=orthogonalEdgeStyle;rounded=0;orthogonalLoop=1;jettySize=auto;html=1;entryX=0;entryY=0.5;entryDx=0;entryDy=0;fontSize=12;endArrow=diamond;endFill=0;" edge="1" parent="1" source="xkc74XCjLa4Et9LF49ZE-32" target="xkc74XCjLa4Et9LF49ZE-7">
          <mxGeometry relative="1" as="geometry">
            <Array as="points">
              <mxPoint x="-160" y="1373" />
              <mxPoint x="-160" y="1703" />
            </Array>
          </mxGeometry>
        </mxCell>
        <mxCell id="xkc74XCjLa4Et9LF49ZE-32" value="«interface»&lt;br&gt;&lt;b&gt;Budget_aprRepository&lt;/b&gt;" style="html=1;fontSize=12;" vertex="1" parent="1">
          <mxGeometry x="-360" y="1348" width="160" height="50" as="geometry" />
        </mxCell>
        <mxCell id="xkc74XCjLa4Et9LF49ZE-33" value="extends" style="edgeStyle=orthogonalEdgeStyle;rounded=0;orthogonalLoop=1;jettySize=auto;html=1;entryX=1;entryY=0.5;entryDx=0;entryDy=0;fontSize=12;endArrow=block;endFill=0;" edge="1" parent="1" source="xkc74XCjLa4Et9LF49ZE-35" target="xkc74XCjLa4Et9LF49ZE-49">
          <mxGeometry relative="1" as="geometry" />
        </mxCell>
        <mxCell id="xkc74XCjLa4Et9LF49ZE-34" style="edgeStyle=orthogonalEdgeStyle;rounded=0;orthogonalLoop=1;jettySize=auto;html=1;entryX=0;entryY=0.5;entryDx=0;entryDy=0;fontSize=12;endArrow=diamond;endFill=0;" edge="1" parent="1" source="xkc74XCjLa4Et9LF49ZE-35" target="xkc74XCjLa4Et9LF49ZE-7">
          <mxGeometry relative="1" as="geometry">
            <Array as="points">
              <mxPoint x="-160" y="2043" />
              <mxPoint x="-160" y="1703" />
            </Array>
          </mxGeometry>
        </mxCell>
        <mxCell id="xkc74XCjLa4Et9LF49ZE-35" value="«interface»&lt;br&gt;&lt;b&gt;ExpenseRepository&lt;/b&gt;" style="html=1;fontSize=12;" vertex="1" parent="1">
          <mxGeometry x="-360" y="2018" width="160" height="50" as="geometry" />
        </mxCell>
        <mxCell id="xkc74XCjLa4Et9LF49ZE-36" value="extends" style="edgeStyle=orthogonalEdgeStyle;rounded=0;orthogonalLoop=1;jettySize=auto;html=1;entryX=1;entryY=0.5;entryDx=0;entryDy=0;fontSize=12;endArrow=block;endFill=0;" edge="1" parent="1" source="xkc74XCjLa4Et9LF49ZE-38" target="xkc74XCjLa4Et9LF49ZE-47">
          <mxGeometry relative="1" as="geometry" />
        </mxCell>
        <mxCell id="xkc74XCjLa4Et9LF49ZE-37" style="edgeStyle=orthogonalEdgeStyle;rounded=0;orthogonalLoop=1;jettySize=auto;html=1;entryX=0;entryY=0.5;entryDx=0;entryDy=0;fontSize=12;endArrow=diamond;endFill=0;" edge="1" parent="1" source="xkc74XCjLa4Et9LF49ZE-38" target="xkc74XCjLa4Et9LF49ZE-7">
          <mxGeometry relative="1" as="geometry">
            <Array as="points">
              <mxPoint x="-160" y="1843" />
              <mxPoint x="-160" y="1700" />
              <mxPoint x="-30" y="1700" />
            </Array>
          </mxGeometry>
        </mxCell>
        <mxCell id="xkc74XCjLa4Et9LF49ZE-38" value="«interface»&lt;br&gt;&lt;b&gt;EmployeeRepository&lt;/b&gt;" style="html=1;fontSize=12;" vertex="1" parent="1">
          <mxGeometry x="-360" y="1818" width="160" height="50" as="geometry" />
        </mxCell>
        <mxCell id="xkc74XCjLa4Et9LF49ZE-39" value="extends" style="edgeStyle=orthogonalEdgeStyle;rounded=0;orthogonalLoop=1;jettySize=auto;html=1;entryX=1;entryY=0.5;entryDx=0;entryDy=0;fontSize=12;endArrow=block;endFill=0;" edge="1" parent="1" source="xkc74XCjLa4Et9LF49ZE-41" target="xkc74XCjLa4Et9LF49ZE-45">
          <mxGeometry relative="1" as="geometry" />
        </mxCell>
        <mxCell id="xkc74XCjLa4Et9LF49ZE-40" style="edgeStyle=orthogonalEdgeStyle;rounded=0;orthogonalLoop=1;jettySize=auto;html=1;entryX=0;entryY=0.5;entryDx=0;entryDy=0;fontSize=12;endArrow=diamond;endFill=0;" edge="1" parent="1" source="xkc74XCjLa4Et9LF49ZE-41" target="xkc74XCjLa4Et9LF49ZE-7">
          <mxGeometry relative="1" as="geometry">
            <Array as="points">
              <mxPoint x="-160" y="1603" />
              <mxPoint x="-160" y="1703" />
            </Array>
          </mxGeometry>
        </mxCell>
        <mxCell id="xkc74XCjLa4Et9LF49ZE-41" value="«interface»&lt;br&gt;&lt;b&gt;Budget_reqRepository&lt;/b&gt;" style="html=1;fontSize=12;" vertex="1" parent="1">
          <mxGeometry x="-360" y="1578" width="160" height="50" as="geometry" />
        </mxCell>
        <mxCell id="xkc74XCjLa4Et9LF49ZE-42" value="bind" style="edgeStyle=orthogonalEdgeStyle;rounded=0;orthogonalLoop=1;jettySize=auto;html=1;entryX=1;entryY=0.5;entryDx=0;entryDy=0;dashed=1;fontSize=12;endArrow=block;endFill=0;" edge="1" parent="1" source="xkc74XCjLa4Et9LF49ZE-43" target="xkc74XCjLa4Et9LF49ZE-3">
          <mxGeometry relative="1" as="geometry" />
        </mxCell>
        <mxCell id="xkc74XCjLa4Et9LF49ZE-43" value="«interface»&lt;br&gt;&lt;b&gt;CrudRepository&lt;/b&gt;" style="html=1;fontSize=12;" vertex="1" parent="1">
          <mxGeometry x="-596" y="1348" width="160" height="50" as="geometry" />
        </mxCell>
        <mxCell id="xkc74XCjLa4Et9LF49ZE-44" value="bind" style="edgeStyle=orthogonalEdgeStyle;rounded=0;orthogonalLoop=1;jettySize=auto;html=1;entryX=1;entryY=0.5;entryDx=0;entryDy=0;fontSize=12;endArrow=block;endFill=0;dashed=1;" edge="1" parent="1" source="xkc74XCjLa4Et9LF49ZE-45" target="xkc74XCjLa4Et9LF49ZE-19">
          <mxGeometry relative="1" as="geometry" />
        </mxCell>
        <mxCell id="xkc74XCjLa4Et9LF49ZE-45" value="«interface»&lt;br&gt;&lt;b&gt;CrudRepository&lt;/b&gt;" style="html=1;fontSize=12;" vertex="1" parent="1">
          <mxGeometry x="-600" y="1578" width="160" height="50" as="geometry" />
        </mxCell>
        <mxCell id="xkc74XCjLa4Et9LF49ZE-46" value="bind" style="edgeStyle=orthogonalEdgeStyle;rounded=0;orthogonalLoop=1;jettySize=auto;html=1;entryX=1;entryY=0.5;entryDx=0;entryDy=0;dashed=1;fontSize=12;endArrow=block;endFill=0;" edge="1" parent="1" source="xkc74XCjLa4Et9LF49ZE-47" target="xkc74XCjLa4Et9LF49ZE-23">
          <mxGeometry relative="1" as="geometry" />
        </mxCell>
        <mxCell id="xkc74XCjLa4Et9LF49ZE-47" value="«interface»&lt;br&gt;&lt;b&gt;CrudRepository&lt;/b&gt;" style="html=1;fontSize=12;" vertex="1" parent="1">
          <mxGeometry x="-600" y="1818" width="160" height="50" as="geometry" />
        </mxCell>
        <mxCell id="xkc74XCjLa4Et9LF49ZE-48" value="bind" style="edgeStyle=orthogonalEdgeStyle;rounded=0;orthogonalLoop=1;jettySize=auto;html=1;entryX=1;entryY=0.5;entryDx=0;entryDy=0;dashed=1;fontSize=12;endArrow=block;endFill=0;" edge="1" parent="1" source="xkc74XCjLa4Et9LF49ZE-49" target="xkc74XCjLa4Et9LF49ZE-27">
          <mxGeometry relative="1" as="geometry" />
        </mxCell>
        <mxCell id="xkc74XCjLa4Et9LF49ZE-49" value="«interface»&lt;br&gt;&lt;b&gt;CrudRepository&lt;/b&gt;" style="html=1;fontSize=12;" vertex="1" parent="1">
          <mxGeometry x="-596" y="2018" width="160" height="50" as="geometry" />
        </mxCell>
        <mxCell id="xkc74XCjLa4Et9LF49ZE-50" value="«interface»&lt;br&gt;&lt;b&gt;IUserView&lt;/b&gt;" style="html=1;fontSize=12;" vertex="1" parent="1">
          <mxGeometry x="305" y="1530" width="160" height="50" as="geometry" />
        </mxCell>
        <mxCell id="xkc74XCjLa4Et9LF49ZE-51" value="ManagerPresenter" style="swimlane;fontStyle=1;align=center;verticalAlign=top;childLayout=stackLayout;horizontal=1;startSize=26;horizontalStack=0;resizeParent=1;resizeParentMax=0;resizeLast=0;collapsible=1;marginBottom=0;" vertex="1" collapsed="1" parent="1">
          <mxGeometry x="135" y="1840" width="140" height="26" as="geometry">
            <mxRectangle x="480" y="1678" width="320" height="400" as="alternateBounds" />
          </mxGeometry>
        </mxCell>
        <mxCell id="xkc74XCjLa4Et9LF49ZE-52" value="- managerView: ManagerViewImpl&#xa;- BudgetService: budgetService&#xa;&#xa;&#xa;" style="text;strokeColor=none;fillColor=none;align=left;verticalAlign=top;spacingLeft=4;spacingRight=4;overflow=hidden;rotatable=0;points=[[0,0.5],[1,0.5]];portConstraint=eastwest;" vertex="1" parent="xkc74XCjLa4Et9LF49ZE-51">
          <mxGeometry y="26" width="140" height="54" as="geometry" />
        </mxCell>
        <mxCell id="xkc74XCjLa4Et9LF49ZE-53" value="" style="line;strokeWidth=1;fillColor=none;align=left;verticalAlign=middle;spacingTop=-1;spacingLeft=3;spacingRight=3;rotatable=0;labelPosition=right;points=[];portConstraint=eastwest;" vertex="1" parent="xkc74XCjLa4Et9LF49ZE-51">
          <mxGeometry y="80" width="140" height="8" as="geometry" />
        </mxCell>
        <mxCell id="xkc74XCjLa4Et9LF49ZE-54" value="+ ManagerPresenter (budgetService: Budgetservice,&#xa;        ManagerViewImpl userView)&#xa;&#xa;+ findRequestsByEmployee&#xa;+ findRequestByRequestID&#xa;&#xa;+ approveBudget&#xa;+ denyBudget&#xa;&#xa;+ findActiveBudgets&#xa;+ findActiveBudgets_Asc&#xa;+ findActiveBudgets_Desc&#xa;+ findActiveBudgets_OrderedByUsage_Asc&#xa;+ findActiveBudgets_OrderedByUsage_Desc&#xa;&#xa;+findExpensesByBudgetID&#xa;+ findExpenseByExpenseID&#xa;+ findExpensesUntilDateByID&#xa;+ findExpensesUntilDateByID_Asc&#xa;+ findExpensesUntilDateByID_Desc&#xa;&#xa;" style="text;strokeColor=none;fillColor=none;align=left;verticalAlign=top;spacingLeft=4;spacingRight=4;overflow=hidden;rotatable=0;points=[[0,0.5],[1,0.5]];portConstraint=eastwest;" vertex="1" parent="xkc74XCjLa4Et9LF49ZE-51">
          <mxGeometry y="88" width="140" height="312" as="geometry" />
        </mxCell>
        <mxCell id="xkc74XCjLa4Et9LF49ZE-55" value="ManagerViewImpl" style="swimlane;fontStyle=1;align=center;verticalAlign=top;childLayout=stackLayout;horizontal=1;startSize=26;horizontalStack=0;resizeParent=1;resizeParentMax=0;resizeLast=0;collapsible=1;marginBottom=0;" vertex="1" collapsed="1" parent="1">
          <mxGeometry x="585" y="1840" width="130" height="26" as="geometry">
            <mxRectangle x="1120" y="1835" width="160" height="86" as="alternateBounds" />
          </mxGeometry>
        </mxCell>
        <mxCell id="xkc74XCjLa4Et9LF49ZE-56" value="+ field: type" style="text;strokeColor=none;fillColor=none;align=left;verticalAlign=top;spacingLeft=4;spacingRight=4;overflow=hidden;rotatable=0;points=[[0,0.5],[1,0.5]];portConstraint=eastwest;" vertex="1" parent="xkc74XCjLa4Et9LF49ZE-55">
          <mxGeometry y="26" width="130" height="26" as="geometry" />
        </mxCell>
        <mxCell id="xkc74XCjLa4Et9LF49ZE-57" value="" style="line;strokeWidth=1;fillColor=none;align=left;verticalAlign=middle;spacingTop=-1;spacingLeft=3;spacingRight=3;rotatable=0;labelPosition=right;points=[];portConstraint=eastwest;" vertex="1" parent="xkc74XCjLa4Et9LF49ZE-55">
          <mxGeometry y="52" width="130" height="8" as="geometry" />
        </mxCell>
        <mxCell id="xkc74XCjLa4Et9LF49ZE-58" value="+ method(type): type" style="text;strokeColor=none;fillColor=none;align=left;verticalAlign=top;spacingLeft=4;spacingRight=4;overflow=hidden;rotatable=0;points=[[0,0.5],[1,0.5]];portConstraint=eastwest;" vertex="1" parent="xkc74XCjLa4Et9LF49ZE-55">
          <mxGeometry y="60" width="130" height="26" as="geometry" />
        </mxCell>
        <mxCell id="xkc74XCjLa4Et9LF49ZE-59" value="«interface»&lt;br&gt;&lt;b&gt;IManagerView&lt;/b&gt;" style="html=1;fontSize=12;" vertex="1" parent="1">
          <mxGeometry x="325" y="1830" width="160" height="50" as="geometry" />
        </mxCell>
        <mxCell id="xkc74XCjLa4Et9LF49ZE-60" style="edgeStyle=orthogonalEdgeStyle;rounded=0;orthogonalLoop=1;jettySize=auto;html=1;entryX=0;entryY=0.5;entryDx=0;entryDy=0;fontSize=12;endArrow=diamond;endFill=0;" edge="1" parent="1" source="xkc74XCjLa4Et9LF49ZE-9" target="xkc74XCjLa4Et9LF49ZE-11">
          <mxGeometry relative="1" as="geometry" />
        </mxCell>
        <mxCell id="xkc74XCjLa4Et9LF49ZE-61" style="edgeStyle=orthogonalEdgeStyle;rounded=0;orthogonalLoop=1;jettySize=auto;html=1;entryX=0;entryY=0.5;entryDx=0;entryDy=0;fontSize=12;endArrow=diamond;endFill=0;" edge="1" parent="1" source="xkc74XCjLa4Et9LF49ZE-9" target="xkc74XCjLa4Et9LF49ZE-52">
          <mxGeometry relative="1" as="geometry" />
        </mxCell>
        <mxCell id="xkc74XCjLa4Et9LF49ZE-62" value="implements" style="edgeStyle=orthogonalEdgeStyle;rounded=0;orthogonalLoop=1;jettySize=auto;html=1;entryX=1;entryY=0.5;entryDx=0;entryDy=0;fontSize=12;endArrow=block;endFill=0;" edge="1" parent="1" source="xkc74XCjLa4Et9LF49ZE-15" target="xkc74XCjLa4Et9LF49ZE-50">
          <mxGeometry relative="1" as="geometry" />
        </mxCell>
        <mxCell id="xkc74XCjLa4Et9LF49ZE-63" value="implements" style="edgeStyle=orthogonalEdgeStyle;rounded=0;orthogonalLoop=1;jettySize=auto;html=1;entryX=1;entryY=0.5;entryDx=0;entryDy=0;fontSize=12;endArrow=block;endFill=0;" edge="1" parent="1" source="xkc74XCjLa4Et9LF49ZE-56" target="xkc74XCjLa4Et9LF49ZE-59">
          <mxGeometry relative="1" as="geometry" />
        </mxCell>
        <mxCell id="xkc74XCjLa4Et9LF49ZE-64" style="edgeStyle=orthogonalEdgeStyle;rounded=0;orthogonalLoop=1;jettySize=auto;html=1;entryX=0;entryY=0.5;entryDx=0;entryDy=0;fontSize=12;endArrow=diamond;endFill=0;" edge="1" parent="1" source="xkc74XCjLa4Et9LF49ZE-13" target="xkc74XCjLa4Et9LF49ZE-17">
          <mxGeometry relative="1" as="geometry">
            <Array as="points">
              <mxPoint x="190" y="1739" />
              <mxPoint x="545" y="1739" />
            </Array>
          </mxGeometry>
        </mxCell>
        <mxCell id="xkc74XCjLa4Et9LF49ZE-65" style="edgeStyle=orthogonalEdgeStyle;rounded=0;orthogonalLoop=1;jettySize=auto;html=1;entryX=0;entryY=0.5;entryDx=0;entryDy=0;fontSize=12;endArrow=diamond;endFill=0;" edge="1" parent="1" source="xkc74XCjLa4Et9LF49ZE-54" target="xkc74XCjLa4Et9LF49ZE-58">
          <mxGeometry relative="1" as="geometry">
            <Array as="points">
              <mxPoint x="205" y="1912" />
              <mxPoint x="585" y="1912" />
            </Array>
          </mxGeometry>
        </mxCell>
      </root>
    </mxGraphModel>
  </diagram>
</mxfile>
